<svg xmlns="http://www.w3.org/2000/svg" viewBox="0 0 64 64" role="img" aria-label="Gold">
  <defs>
    <radialGradient id="gFace" cx="35%" cy="30%" r="70%">
      <stop offset="0%" stop-color="#FFE9A0"/>
      <stop offset="45%" stop-color="#E0B84A"/>
      <stop offset="100%" stop-color="#9A6B12"/>
    </radialGradient>
    <linearGradient id="gRim" x1="0%" y1="0%" x2="100%" y2="100%">
      <stop offset="0%" stop-color="#FFF3C4"/>
      <stop offset="50%" stop-color="#C9962A"/>
      <stop offset="100%" stop-color="#6E4A08"/>
    </linearGradient>
  </defs>
  <circle cx="32" cy="32" r="30" fill="url(#gRim)"/>
  <circle cx="32" cy="32" r="25.5" fill="url(#gFace)"/>
  <circle cx="32" cy="32" r="22" fill="none" stroke="#FFF6D1" stroke-width="1.1" opacity="0.55"/>
  <circle cx="32" cy="32" r="19.5" fill="none" stroke="#8B6914" stroke-width="0.6" opacity="0.35"/>
  <!-- Au path letterforms -->
  <path fill="#5A3D05" d="M18.2 42 L24.8 22 h3.6 L35 42 h-3.3 l-1.4-4.6 H22.9 L21.5 42 H18.2z M24 34.2 h6.2 l-3.1-10.1z"/>
  <path fill="#5A3D05" d="M37.2 22 h7.2c4.1 0 6.7 2.4 6.7 6.1 0 2.7-1.4 4.6-3.7 5.5v.2c2.7.8 4.4 2.8 4.4 5.7 0 4-2.8 6.5-7.2 6.5h-7.4V22zm3.1 8.3h3.8c2.1 0 3.4-1.1 3.4-2.9s-1.3-2.8-3.4-2.8h-3.8v5.7zm0 9.1h4.2c2.3 0 3.7-1.2 3.7-3.2s-1.4-3.1-3.7-3.1h-4.2v6.3z"/>
</svg>
