<svg xmlns="http://www.w3.org/2000/svg" viewBox="0 0 64 64" role="img" aria-label="Silver">
  <defs>
    <linearGradient id="agTop" x1="0%" y1="0%" x2="100%" y2="100%">
      <stop offset="0%" stop-color="#FFFFFF"/>
      <stop offset="45%" stop-color="#D8DCE2"/>
      <stop offset="100%" stop-color="#9AA1AA"/>
    </linearGradient>
    <linearGradient id="agFace" x1="0%" y1="0%" x2="0%" y2="100%">
      <stop offset="0%" stop-color="#EEF1F4"/>
      <stop offset="55%" stop-color="#B4BAC2"/>
      <stop offset="100%" stop-color="#6E757E"/>
    </linearGradient>
    <linearGradient id="agSide" x1="0%" y1="0%" x2="100%" y2="100%">
      <stop offset="0%" stop-color="#A8ADB5"/>
      <stop offset="100%" stop-color="#4E545C"/>
    </linearGradient>
  </defs>
  <!-- Back bar -->
  <path fill="url(#agSide)" d="M14 22 L34 14 L50 20 L30 28 Z"/>
  <path fill="url(#agFace)" d="M14 22 L30 28 L30 36 L14 30 Z"/>
  <path fill="url(#agTop)" d="M30 28 L50 20 L50 28 L30 36 Z"/>
  <!-- Middle bar -->
  <path fill="url(#agSide)" d="M12 32 L32 24 L48 30 L28 38 Z"/>
  <path fill="url(#agFace)" d="M12 32 L28 38 L28 46 L12 40 Z"/>
  <path fill="url(#agTop)" d="M28 38 L48 30 L48 38 L28 46 Z"/>
  <!-- Front bar -->
  <path fill="url(#agSide)" d="M10 42 L30 34 L46 40 L26 48 Z"/>
  <path fill="url(#agFace)" d="M10 42 L26 48 L26 56 L10 50 Z"/>
  <path fill="url(#agTop)" d="M26 48 L46 40 L46 48 L26 56 Z"/>
  <path fill="none" stroke="#FFFFFF" stroke-opacity="0.4" stroke-width="0.6" d="M14 22 L34 14 L50 20 L30 28 Z"/>
</svg>
